# xmcd
#
# Track frame offsets:
#	150
#	43463
#	88534
#	148802
#	192991
#	225235
#	228957
#	239671
#	252241
#	296534
#	314960
#
# Disc length: 4756 seconds
#
# Revision: 1
# Processed by: cddbd v1.5.2PL0 Copyright (c) Steve Scherf et al.
# Submitted via: audiograbber 1.83.01
#
DISCID=a412920b
DTITLE=Grateful Dead - 78-11-23 Capital Centre, Landover MD
DYEAR=1900
DGENRE=
TTITLE0=Friend Of The Devil
TTITLE1=Dancing In The Streets
TTITLE2=Terrapin Station
TTITLE3=Playing In The Band
TTITLE4=Drums
TTITLE5=Space
TTITLE6=Ollin Arageed Jam
TTITLE7=Jam
TTITLE8=Shakedown Street
TTITLE9=Playing In The Band
TTITLE10=Around and Around
EXTD=
EXTT0=
EXTT1=
EXTT2=
EXTT3=
EXTT4=
EXTT5=
EXTT6=
EXTT7=
EXTT8=
EXTT9=
EXTT10=
PLAYORDER=
